# xmcd CD database file
#
# Track frame offsets:
#	150
#	12454
#	29261
#	43621
#	56098
#	67708
#	78958
#	95224
#	105957
#	118438
#	129165
#	138453
#
# Disc length: 2081 seconds
#
# Revision: 0
# Processed by: cddbd v1.5.2PL0 Copyright (c) Steve Scherf et al.
# Submitted via: CDex 1.51
#
DISCID=9d081f0c
DTITLE=GYMPLERI - PUVODNICE RECEPTURA
DYEAR=2004
DGENRE=Country
TTITLE0=Pecos Promenade
TTITLE1=Napric Amerikou
TTITLE2=Las Vegas
TTITLE3=Stary Dum
TTITLE4=Little Bitty
TTITLE5=Vitej v risi snu
TTITLE6=Divce z modrych hor
TTITLE7=Darebovo blues
TTITLE8=Colorado
TTITLE9=V dalce uz vidim dym
TTITLE10=Pusa na dobre rano
TTITLE11=Wild Mountain Thyme
EXTD=YEAR: 2004
EXTT0=
EXTT1=
EXTT2=
EXTT3=
EXTT4=
EXTT5=
EXTT6=
EXTT7=
EXTT8=
EXTT9=
EXTT10=
EXTT11=
PLAYORDER=
